<?xml version="1.0" encoding="utf-8"?>
<!-- Generator: Adobe Illustrator 17.0.0, SVG Export Plug-In . SVG Version: 6.00 Build 0)  -->
<!DOCTYPE svg PUBLIC "-//W3C//DTD SVG 1.1//EN" "http://www.w3.org/Graphics/SVG/1.1/DTD/svg11.dtd">
<svg version="1.1" id="Layer_1" xmlns="http://www.w3.org/2000/svg" xmlns:xlink="http://www.w3.org/1999/xlink" x="0px" y="0px"
	 width="170.08px" height="170.08px" viewBox="0 0 170.08 170.08" enable-background="new 0 0 170.08 170.08" xml:space="preserve">
<path d="M103.071,85.04l63.273-63.273c4.981-4.979,4.981-13.052,0-18.031c-4.981-4.981-13.05-4.981-18.031,0L85.04,67.009
	L21.767,3.736c-4.981-4.981-13.049-4.981-18.031,0c-4.981,4.979-4.981,13.052,0,18.031L67.009,85.04L3.736,148.313
	c-4.981,4.979-4.981,13.052,0,18.031c2.491,2.49,5.753,3.736,9.016,3.736c3.262,0,6.525-1.246,9.015-3.736L85.04,103.07
	l63.273,63.274c2.491,2.49,5.753,3.736,9.015,3.736c3.263,0,6.525-1.246,9.016-3.736c4.981-4.979,4.981-13.052,0-18.031
	L103.071,85.04z"/>
</svg>
