<svg width="100" height="52" viewBox="0 0 100 52" fill="none" xmlns="http://www.w3.org/2000/svg">
<g clip-path="url(#clip0)">
<path fill-rule="evenodd" clip-rule="evenodd" d="M7.05708 21.2121C6.4816 19.4966 10.3435 19.1292 12.3884 18.5966C12.0808 16.8259 11.9903 15.3638 12.5766 14.1662C13.1919 12.9025 15.4866 10.8673 16.2286 12.7849C16.5579 14.5078 16.2576 16.6789 16.6412 18.3614C19.5946 18.2585 23.4818 18.3798 26.6415 18.7619C30.1704 19.1917 32.8306 19.9043 31.553 23.4273C30.4419 26.4837 26.2108 29.0442 23.261 29.1544C22.5263 27.8576 27.7056 26.3368 27.6043 22.6742C27.5138 19.4451 19.1349 20.7676 17.1334 20.8007C18.6246 26.3257 19.2725 31.5275 21.4948 36.5383C22.6276 39.2457 19.4426 39.8004 17.8971 37.6147C15.0197 32.6223 14.4514 26.6821 12.7612 20.8521C10.7706 20.9623 9.11651 21.2158 7.05708 21.2121Z" fill="#FFCD09"/>
<path fill-rule="evenodd" clip-rule="evenodd" d="M40.3118 16.6683C41.9477 14.5964 44.0035 14.9638 44.4813 16.323C43.5185 19.7358 38.6758 24.9449 36.9819 29.1438C36.2001 31.0834 35.621 34.3419 36.9856 35.1721C38.2704 35.9509 40.6556 35.6093 42.1215 35.624C43.8406 35.6387 45.2015 35.4513 46.8737 35.3925C46.5371 34.3052 46.233 33.7468 46.1752 32.6631C46.367 31.403 48.3721 30.9695 49.3023 32.4904C50.2723 34.3125 50.8912 36.3366 51.2893 38.482C51.4558 40.0249 49.2697 40.5686 48.2237 39.2829C47.7749 38.3976 47.8763 38.6657 47.4709 37.7326C42.6246 37.6518 35.1831 39.4739 32.7472 36.7297C31.2995 35.0729 31.8931 31.8476 32.8088 29.4891C34.6004 24.8861 37.6479 20.419 40.3118 16.6683Z" fill="#FFCD09"/>
<path fill-rule="evenodd" clip-rule="evenodd" d="M48.7558 21.2126C48.1803 19.4971 52.0422 19.1297 54.0871 18.597C53.7795 16.8264 53.689 15.3643 54.2754 14.1667C54.8906 12.903 57.1854 10.8678 57.9273 12.7854C58.2567 14.5083 57.9563 16.6794 58.3399 18.3619C61.2933 18.259 65.1804 18.3803 68.3404 18.7624C71.8691 19.1922 74.5296 19.9048 73.2517 23.4278C72.1404 26.4842 67.9098 29.0447 64.9599 29.1549C64.2251 27.8581 69.4082 26.3372 69.3029 22.6747C69.2125 19.4456 60.8373 20.7681 58.8321 20.8011C60.3234 26.3262 60.9712 31.528 63.1936 36.5388C64.3226 39.2462 61.1413 39.8009 59.5958 37.6151C56.7185 32.6227 56.1538 26.6825 54.46 20.8526C52.4693 20.9628 50.8152 21.2163 48.7558 21.2126Z" fill="#FFCD09"/>
<path fill-rule="evenodd" clip-rule="evenodd" d="M82.0073 16.6683C83.6429 14.5964 85.7025 14.9638 86.1766 16.323C85.2135 19.7358 80.371 24.9449 78.677 29.1438C77.8952 31.0834 77.3164 34.3419 78.6808 35.1721C79.9658 35.9509 82.3474 35.6093 83.8166 35.624C85.536 35.6387 86.8966 35.4513 88.5692 35.3925C88.2323 34.3052 87.9286 33.7468 87.874 32.6631C88.0658 31.403 90.0676 30.9695 91.0014 32.4904C91.9711 34.3125 92.5902 36.3366 92.9915 38.482C93.158 40.0249 90.9722 40.5686 89.9226 39.2829C89.4738 38.3976 89.5752 38.6657 89.1695 37.7326C84.3232 37.6518 76.882 39.4739 74.4459 36.7297C72.9982 35.0729 73.5919 31.8476 74.5076 29.4891C76.2993 24.8861 79.3468 20.419 82.0073 16.6683Z" fill="#FFCD09"/>
</g>
<defs>
<clipPath id="clip0">
<rect width="86.0013" height="28.0034" fill="white" transform="translate(6.99927 11.9985)"/>
</clipPath>
</defs>
</svg>
